<mxfile host="app.diagrams.net" modified="2020-10-20T13:57:38.597Z" agent="5.0 (Macintosh; Intel Mac OS X 10_15_4) AppleWebKit/537.36 (KHTML, like Gecko) Chrome/86.0.4240.80 Safari/537.36" etag="tEAmc50gD0S9uHHxTsio" version="13.8.0" type="github">
  <diagram id="L7Soy5zAKEOXwAdA8Eog" name="Page-1">
    <mxGraphModel dx="1186" dy="773" grid="0" gridSize="10" guides="1" tooltips="1" connect="1" arrows="1" fold="1" page="1" pageScale="1" pageWidth="827" pageHeight="1169" math="0" shadow="0">
      <root>
        <mxCell id="0" />
        <mxCell id="1" parent="0" />
        <mxCell id="yRzVdjlKjRgsiLta2_hB-1" value="" style="rounded=1;whiteSpace=wrap;html=1;fillColor=#f8cecc;strokeColor=#b85450;" vertex="1" parent="1">
          <mxGeometry x="250" y="90" width="350" height="160" as="geometry" />
        </mxCell>
        <mxCell id="yRzVdjlKjRgsiLta2_hB-2" value="Subject" style="text;html=1;strokeColor=none;fillColor=none;align=center;verticalAlign=middle;whiteSpace=wrap;rounded=0;fontSize=40;" vertex="1" parent="1">
          <mxGeometry x="320" y="135" width="210" height="70" as="geometry" />
        </mxCell>
        <mxCell id="yRzVdjlKjRgsiLta2_hB-13" value="" style="group" vertex="1" connectable="0" parent="1">
          <mxGeometry x="123" y="344" width="125" height="125" as="geometry" />
        </mxCell>
        <mxCell id="yRzVdjlKjRgsiLta2_hB-11" value="" style="ellipse;whiteSpace=wrap;html=1;aspect=fixed;fontSize=40;fillColor=#dae8fc;" vertex="1" parent="yRzVdjlKjRgsiLta2_hB-13">
          <mxGeometry width="125" height="125" as="geometry" />
        </mxCell>
        <mxCell id="yRzVdjlKjRgsiLta2_hB-12" value="Observer" style="text;html=1;fillColor=none;align=center;verticalAlign=middle;whiteSpace=wrap;rounded=0;fontSize=20;" vertex="1" parent="yRzVdjlKjRgsiLta2_hB-13">
          <mxGeometry x="20" y="42.5" width="85" height="40" as="geometry" />
        </mxCell>
        <mxCell id="yRzVdjlKjRgsiLta2_hB-14" value="" style="group" vertex="1" connectable="0" parent="1">
          <mxGeometry x="374" y="345" width="125" height="125" as="geometry" />
        </mxCell>
        <mxCell id="yRzVdjlKjRgsiLta2_hB-15" value="" style="ellipse;whiteSpace=wrap;html=1;aspect=fixed;fontSize=40;fillColor=#dae8fc;" vertex="1" parent="yRzVdjlKjRgsiLta2_hB-14">
          <mxGeometry width="125" height="125" as="geometry" />
        </mxCell>
        <mxCell id="yRzVdjlKjRgsiLta2_hB-16" value="Observer" style="text;html=1;fillColor=none;align=center;verticalAlign=middle;whiteSpace=wrap;rounded=0;fontSize=20;" vertex="1" parent="yRzVdjlKjRgsiLta2_hB-14">
          <mxGeometry x="20" y="42.5" width="85" height="40" as="geometry" />
        </mxCell>
        <mxCell id="yRzVdjlKjRgsiLta2_hB-17" value="" style="group" vertex="1" connectable="0" parent="1">
          <mxGeometry x="625" y="344" width="125" height="125" as="geometry" />
        </mxCell>
        <mxCell id="yRzVdjlKjRgsiLta2_hB-18" value="" style="ellipse;whiteSpace=wrap;html=1;aspect=fixed;fontSize=40;fillColor=#dae8fc;" vertex="1" parent="yRzVdjlKjRgsiLta2_hB-17">
          <mxGeometry width="125" height="125" as="geometry" />
        </mxCell>
        <mxCell id="yRzVdjlKjRgsiLta2_hB-19" value="Observer" style="text;html=1;fillColor=none;align=center;verticalAlign=middle;whiteSpace=wrap;rounded=0;fontSize=20;" vertex="1" parent="yRzVdjlKjRgsiLta2_hB-17">
          <mxGeometry x="20" y="42.5" width="85" height="40" as="geometry" />
        </mxCell>
        <mxCell id="yRzVdjlKjRgsiLta2_hB-20" value="" style="endArrow=classic;html=1;fontSize=20;" edge="1" parent="1">
          <mxGeometry width="50" height="50" relative="1" as="geometry">
            <mxPoint x="198" y="319" as="sourcePoint" />
            <mxPoint x="248" y="269" as="targetPoint" />
          </mxGeometry>
        </mxCell>
        <mxCell id="yRzVdjlKjRgsiLta2_hB-21" value="" style="endArrow=classic;html=1;fontSize=20;" edge="1" parent="1">
          <mxGeometry width="50" height="50" relative="1" as="geometry">
            <mxPoint x="436" y="326.5" as="sourcePoint" />
            <mxPoint x="436" y="267" as="targetPoint" />
          </mxGeometry>
        </mxCell>
        <mxCell id="yRzVdjlKjRgsiLta2_hB-22" value="" style="endArrow=classic;html=1;fontSize=20;" edge="1" parent="1">
          <mxGeometry width="50" height="50" relative="1" as="geometry">
            <mxPoint x="664" y="329" as="sourcePoint" />
            <mxPoint x="620" y="266" as="targetPoint" />
          </mxGeometry>
        </mxCell>
      </root>
    </mxGraphModel>
  </diagram>
</mxfile>
